<?xml version="1.0" encoding="UTF-8" standalone="no"?>
<!DOCTYPE svg PUBLIC "-//W3C//DTD SVG 1.1//EN"
 "http://www.w3.org/Graphics/SVG/1.1/DTD/svg11.dtd">
<!-- Generated by graphviz version 2.42.3 (20191010.1750)
 -->
<!-- Title: G Pages: 1 -->
<svg width="780pt" height="324pt"
 viewBox="0.00 0.00 780.26 324.20" xmlns="http://www.w3.org/2000/svg" xmlns:xlink="http://www.w3.org/1999/xlink">
<g id="graph0" class="graph" transform="scale(1 1) rotate(0) translate(21.6 302.6)">
<title>G</title>
<polygon fill="#111111" stroke="transparent" points="-21.6,21.6 -21.6,-302.6 758.66,-302.6 758.66,21.6 -21.6,21.6"/>
<!-- baseHandlers.ts -->
<g id="node1" class="node">
<title>baseHandlers.ts</title>
<path fill="none" stroke="#ff6c60" d="M109.18,-215.1C109.18,-215.1 7.98,-215.1 7.98,-215.1 3.95,-215.1 -0.08,-211.07 -0.08,-207.03 -0.08,-207.03 -0.08,-198.97 -0.08,-198.97 -0.08,-194.93 3.95,-190.9 7.98,-190.9 7.98,-190.9 109.18,-190.9 109.18,-190.9 113.21,-190.9 117.25,-194.93 117.25,-198.97 117.25,-198.97 117.25,-207.03 117.25,-207.03 117.25,-211.07 113.21,-215.1 109.18,-215.1"/>
<text text-anchor="middle" x="58.58" y="-199.85" font-family="Arial" font-size="14.00" fill="#ff6c60">baseHandlers.ts</text>
</g>
<!-- effect.ts -->
<g id="node2" class="node">
<title>effect.ts</title>
<path fill="none" stroke="#c6c5fe" d="M596.72,-168.1C596.72,-168.1 548.32,-168.1 548.32,-168.1 544.29,-168.1 540.25,-164.07 540.25,-160.03 540.25,-160.03 540.25,-151.97 540.25,-151.97 540.25,-147.93 544.29,-143.9 548.32,-143.9 548.32,-143.9 596.72,-143.9 596.72,-143.9 600.76,-143.9 604.79,-147.93 604.79,-151.97 604.79,-151.97 604.79,-160.03 604.79,-160.03 604.79,-164.07 600.76,-168.1 596.72,-168.1"/>
<text text-anchor="middle" x="572.52" y="-152.85" font-family="Arial" font-size="14.00" fill="#c6c5fe">effect.ts</text>
</g>
<!-- baseHandlers.ts&#45;&gt;effect.ts -->
<g id="edge1" class="edge">
<title>baseHandlers.ts&#45;&gt;effect.ts</title>
<path fill="none" stroke="#757575" d="M101.37,-215.12C182.52,-236.36 365.62,-273.03 504.14,-217 525.17,-208.49 543.83,-190.3 556.15,-175.98"/>
<polygon fill="#757575" stroke="#757575" points="558.99,-178.05 562.64,-168.11 553.58,-173.6 558.99,-178.05"/>
</g>
<!-- operations.ts -->
<g id="node3" class="node">
<title>operations.ts</title>
<path fill="none" stroke="#cfffac" d="M729.08,-148.1C729.08,-148.1 648.89,-148.1 648.89,-148.1 644.86,-148.1 640.83,-144.07 640.83,-140.03 640.83,-140.03 640.83,-131.97 640.83,-131.97 640.83,-127.93 644.86,-123.9 648.89,-123.9 648.89,-123.9 729.08,-123.9 729.08,-123.9 733.11,-123.9 737.14,-127.93 737.14,-131.97 737.14,-131.97 737.14,-140.03 737.14,-140.03 737.14,-144.07 733.11,-148.1 729.08,-148.1"/>
<text text-anchor="middle" x="688.98" y="-132.85" font-family="Arial" font-size="14.00" fill="#cfffac">operations.ts</text>
</g>
<!-- baseHandlers.ts&#45;&gt;operations.ts -->
<g id="edge2" class="edge">
<title>baseHandlers.ts&#45;&gt;operations.ts</title>
<path fill="none" stroke="#757575" d="M80.86,-215.19C121.23,-237.12 212.31,-281 294.96,-281 294.96,-281 294.96,-281 432.55,-281 532.94,-281 629.99,-195.24 669.47,-155.63"/>
<polygon fill="#757575" stroke="#757575" points="672.09,-157.96 676.58,-148.36 667.08,-153.06 672.09,-157.96"/>
</g>
<!-- reactive.ts -->
<g id="node4" class="node">
<title>reactive.ts</title>
<path fill="none" stroke="#ff6c60" d="M224.8,-215.1C224.8,-215.1 161.33,-215.1 161.33,-215.1 157.3,-215.1 153.26,-211.07 153.26,-207.03 153.26,-207.03 153.26,-198.97 153.26,-198.97 153.26,-194.93 157.3,-190.9 161.33,-190.9 161.33,-190.9 224.8,-190.9 224.8,-190.9 228.83,-190.9 232.86,-194.93 232.86,-198.97 232.86,-198.97 232.86,-207.03 232.86,-207.03 232.86,-211.07 228.83,-215.1 224.8,-215.1"/>
<text text-anchor="middle" x="193.06" y="-199.85" font-family="Arial" font-size="14.00" fill="#ff6c60">reactive.ts</text>
</g>
<!-- baseHandlers.ts&#45;&gt;reactive.ts -->
<g id="edge3" class="edge">
<title>baseHandlers.ts&#45;&gt;reactive.ts</title>
<path fill="none" stroke="#757575" d="M117.31,-196.3C125.93,-196.2 134.75,-196.25 143.17,-196.46"/>
<polygon fill="#757575" stroke="#757575" points="143.09,-199.96 153.2,-196.79 143.32,-192.96 143.09,-199.96"/>
</g>
<!-- ref.ts -->
<g id="node5" class="node">
<title>ref.ts</title>
<path fill="none" stroke="#ff6c60" d="M314.9,-159.1C314.9,-159.1 277.03,-159.1 277.03,-159.1 273,-159.1 268.96,-155.07 268.96,-151.03 268.96,-151.03 268.96,-142.97 268.96,-142.97 268.96,-138.93 273,-134.9 277.03,-134.9 277.03,-134.9 314.9,-134.9 314.9,-134.9 318.93,-134.9 322.96,-138.93 322.96,-142.97 322.96,-142.97 322.96,-151.03 322.96,-151.03 322.96,-155.07 318.93,-159.1 314.9,-159.1"/>
<text text-anchor="middle" x="295.96" y="-143.85" font-family="Arial" font-size="14.00" fill="#ff6c60">ref.ts</text>
</g>
<!-- baseHandlers.ts&#45;&gt;ref.ts -->
<g id="edge4" class="edge">
<title>baseHandlers.ts&#45;&gt;ref.ts</title>
<path fill="none" stroke="#757575" d="M110.37,-190.92C155.12,-180.27 219.21,-165.02 258.9,-155.58"/>
<polygon fill="#757575" stroke="#757575" points="259.76,-158.97 268.68,-153.25 258.14,-152.16 259.76,-158.97"/>
</g>
<!-- effect.ts&#45;&gt;operations.ts -->
<g id="edge11" class="edge">
<title>effect.ts&#45;&gt;operations.ts</title>
<path fill="none" stroke="#757575" d="M604.8,-150.53C612.88,-149.12 621.83,-147.56 630.79,-145.99"/>
<polygon fill="#757575" stroke="#757575" points="631.6,-149.4 640.85,-144.24 630.4,-142.51 631.6,-149.4"/>
</g>
<!-- reactive.ts&#45;&gt;baseHandlers.ts -->
<g id="edge17" class="edge">
<title>reactive.ts&#45;&gt;baseHandlers.ts</title>
<path fill="none" stroke="#757575" d="M153.2,-209.21C145.03,-209.55 136.19,-209.73 127.31,-209.75"/>
<polygon fill="#757575" stroke="#757575" points="127.32,-206.25 117.31,-209.7 127.29,-213.25 127.32,-206.25"/>
</g>
<!-- reactive.ts&#45;&gt;ref.ts -->
<g id="edge19" class="edge">
<title>reactive.ts&#45;&gt;ref.ts</title>
<path fill="none" stroke="#757575" d="M207.26,-190.95C220.54,-181.73 241.61,-169.45 259.77,-160.07"/>
<polygon fill="#757575" stroke="#757575" points="261.58,-163.07 268.94,-155.45 258.43,-156.82 261.58,-163.07"/>
</g>
<!-- collectionHandlers.ts -->
<g id="node6" class="node">
<title>collectionHandlers.ts</title>
<path fill="none" stroke="#ff6c60" d="M496.16,-208.1C496.16,-208.1 366.94,-208.1 366.94,-208.1 362.91,-208.1 358.88,-204.07 358.88,-200.03 358.88,-200.03 358.88,-191.97 358.88,-191.97 358.88,-187.93 362.91,-183.9 366.94,-183.9 366.94,-183.9 496.16,-183.9 496.16,-183.9 500.19,-183.9 504.22,-187.93 504.22,-191.97 504.22,-191.97 504.22,-200.03 504.22,-200.03 504.22,-204.07 500.19,-208.1 496.16,-208.1"/>
<text text-anchor="middle" x="431.55" y="-192.85" font-family="Arial" font-size="14.00" fill="#ff6c60">collectionHandlers.ts</text>
</g>
<!-- reactive.ts&#45;&gt;collectionHandlers.ts -->
<g id="edge18" class="edge">
<title>reactive.ts&#45;&gt;collectionHandlers.ts</title>
<path fill="none" stroke="#757575" d="M233.12,-196.68C264.49,-194.24 309.64,-192.47 348.85,-191.96"/>
<polygon fill="#757575" stroke="#757575" points="348.97,-195.46 358.94,-191.86 348.9,-188.46 348.97,-195.46"/>
</g>
<!-- ref.ts&#45;&gt;effect.ts -->
<g id="edge22" class="edge">
<title>ref.ts&#45;&gt;effect.ts</title>
<path fill="none" stroke="#757575" d="M323.29,-147.86C371.05,-149.43 472.33,-152.75 529.67,-154.63"/>
<polygon fill="#757575" stroke="#757575" points="529.73,-158.13 539.84,-154.96 529.96,-151.14 529.73,-158.13"/>
</g>
<!-- ref.ts&#45;&gt;operations.ts -->
<g id="edge23" class="edge">
<title>ref.ts&#45;&gt;operations.ts</title>
<path fill="none" stroke="#757575" d="M306.84,-134.73C317.96,-122 337.31,-102.88 358.96,-95 459.6,-58.38 587.74,-96.64 650.25,-120.29"/>
<polygon fill="#757575" stroke="#757575" points="649.12,-123.6 659.71,-123.94 651.64,-117.07 649.12,-123.6"/>
</g>
<!-- ref.ts&#45;&gt;reactive.ts -->
<g id="edge24" class="edge">
<title>ref.ts&#45;&gt;reactive.ts</title>
<path fill="none" stroke="#757575" d="M281.59,-159.18C269.98,-167.22 252.53,-177.54 236.26,-186.25"/>
<polygon fill="#757575" stroke="#757575" points="234.62,-183.16 227.38,-190.9 237.87,-189.36 234.62,-183.16"/>
</g>
<!-- ref.ts&#45;&gt;collectionHandlers.ts -->
<g id="edge20" class="edge">
<title>ref.ts&#45;&gt;collectionHandlers.ts</title>
<path fill="none" stroke="#757575" d="M323.2,-156.78C334.23,-160.88 347.22,-165.69 358.96,-170 368.18,-173.38 378.07,-176.99 387.46,-180.4"/>
<polygon fill="#757575" stroke="#757575" points="386.43,-183.75 397.03,-183.88 388.82,-177.18 386.43,-183.75"/>
</g>
<!-- computed.ts -->
<g id="node7" class="node">
<title>computed.ts</title>
<path fill="none" stroke="#ff6c60" d="M469.75,-128.1C469.75,-128.1 393.35,-128.1 393.35,-128.1 389.32,-128.1 385.29,-124.07 385.29,-120.03 385.29,-120.03 385.29,-111.97 385.29,-111.97 385.29,-107.93 389.32,-103.9 393.35,-103.9 393.35,-103.9 469.75,-103.9 469.75,-103.9 473.78,-103.9 477.81,-107.93 477.81,-111.97 477.81,-111.97 477.81,-120.03 477.81,-120.03 477.81,-124.07 473.78,-128.1 469.75,-128.1"/>
<text text-anchor="middle" x="431.55" y="-112.85" font-family="Arial" font-size="14.00" fill="#ff6c60">computed.ts</text>
</g>
<!-- ref.ts&#45;&gt;computed.ts -->
<g id="edge21" class="edge">
<title>ref.ts&#45;&gt;computed.ts</title>
<path fill="none" stroke="#757575" d="M323.04,-135.47C337.97,-130.93 357.28,-126.06 375.41,-122.14"/>
<polygon fill="#757575" stroke="#757575" points="376.26,-125.54 385.33,-120.07 374.83,-118.68 376.26,-125.54"/>
</g>
<!-- collectionHandlers.ts&#45;&gt;effect.ts -->
<g id="edge5" class="edge">
<title>collectionHandlers.ts&#45;&gt;effect.ts</title>
<path fill="none" stroke="#757575" d="M474.62,-183.89C492.25,-178.82 512.69,-172.93 530.23,-167.88"/>
<polygon fill="#757575" stroke="#757575" points="531.55,-171.15 540.19,-165.02 529.61,-164.42 531.55,-171.15"/>
</g>
<!-- collectionHandlers.ts&#45;&gt;operations.ts -->
<g id="edge6" class="edge">
<title>collectionHandlers.ts&#45;&gt;operations.ts</title>
<path fill="none" stroke="#757575" d="M504.5,-193.67C535.84,-191.23 572.68,-186.41 604.9,-177 623.83,-171.47 643.67,-161.84 659.22,-153.3"/>
<polygon fill="#757575" stroke="#757575" points="661.32,-156.14 668.3,-148.17 657.87,-150.04 661.32,-156.14"/>
</g>
<!-- collectionHandlers.ts&#45;&gt;reactive.ts -->
<g id="edge7" class="edge">
<title>collectionHandlers.ts&#45;&gt;reactive.ts</title>
<path fill="none" stroke="#757575" d="M358.94,-204.38C321.48,-206.32 276.59,-207.42 243.12,-207.14"/>
<polygon fill="#757575" stroke="#757575" points="243.16,-203.64 233.12,-207.01 243.07,-210.64 243.16,-203.64"/>
</g>
<!-- computed.ts&#45;&gt;effect.ts -->
<g id="edge8" class="edge">
<title>computed.ts&#45;&gt;effect.ts</title>
<path fill="none" stroke="#757575" d="M474.62,-128.11C492.25,-133.18 512.69,-139.07 530.23,-144.12"/>
<polygon fill="#757575" stroke="#757575" points="529.61,-147.58 540.19,-146.98 531.55,-140.85 529.61,-147.58"/>
</g>
<!-- computed.ts&#45;&gt;operations.ts -->
<g id="edge9" class="edge">
<title>computed.ts&#45;&gt;operations.ts</title>
<path fill="none" stroke="#757575" d="M477.92,-119.55C520.57,-122.89 584.58,-127.9 630.73,-131.52"/>
<polygon fill="#757575" stroke="#757575" points="630.63,-135.02 640.87,-132.31 631.18,-128.04 630.63,-135.02"/>
</g>
<!-- computed.ts&#45;&gt;ref.ts -->
<g id="edge10" class="edge">
<title>computed.ts&#45;&gt;ref.ts</title>
<path fill="none" stroke="#757575" d="M402.7,-128.07C382.46,-134.12 354.89,-140.67 332.97,-144.71"/>
<polygon fill="#757575" stroke="#757575" points="332.3,-141.28 323.04,-146.43 333.49,-148.17 332.3,-141.28"/>
</g>
<!-- index.ts -->
<g id="node8" class="node">
<title>index.ts</title>
<path fill="none" stroke="#c6c5fe" d="M82.77,-99.1C82.77,-99.1 34.4,-99.1 34.4,-99.1 30.37,-99.1 26.33,-95.07 26.33,-91.03 26.33,-91.03 26.33,-82.97 26.33,-82.97 26.33,-78.93 30.37,-74.9 34.4,-74.9 34.4,-74.9 82.77,-74.9 82.77,-74.9 86.8,-74.9 90.83,-78.93 90.83,-82.97 90.83,-82.97 90.83,-91.03 90.83,-91.03 90.83,-95.07 86.8,-99.1 82.77,-99.1"/>
<text text-anchor="middle" x="58.58" y="-83.85" font-family="Arial" font-size="14.00" fill="#c6c5fe">index.ts</text>
</g>
<!-- index.ts&#45;&gt;effect.ts -->
<g id="edge13" class="edge">
<title>index.ts&#45;&gt;effect.ts</title>
<path fill="none" stroke="#757575" d="M90.95,-80.31C165.71,-65.87 358.98,-37.52 504.14,-95 525.23,-103.35 543.89,-121.57 556.19,-135.93"/>
<polygon fill="#757575" stroke="#757575" points="553.62,-138.32 562.67,-143.84 559.04,-133.88 553.62,-138.32"/>
</g>
<!-- index.ts&#45;&gt;operations.ts -->
<g id="edge14" class="edge">
<title>index.ts&#45;&gt;operations.ts</title>
<path fill="none" stroke="#757575" d="M78.24,-74.9C116.96,-51 209.57,0 294.96,0 294.96,0 294.96,0 432.55,0 530.99,0 628.38,-79.67 668.66,-117.05"/>
<polygon fill="#757575" stroke="#757575" points="666.26,-119.61 675.93,-123.93 671.07,-114.52 666.26,-119.61"/>
</g>
<!-- index.ts&#45;&gt;reactive.ts -->
<g id="edge15" class="edge">
<title>index.ts&#45;&gt;reactive.ts</title>
<path fill="none" stroke="#757575" d="M73.76,-99.41C96.87,-119.65 142.81,-159.88 170.15,-183.81"/>
<polygon fill="#757575" stroke="#757575" points="168.16,-186.72 177.99,-190.68 172.77,-181.45 168.16,-186.72"/>
</g>
<!-- index.ts&#45;&gt;ref.ts -->
<g id="edge16" class="edge">
<title>index.ts&#45;&gt;ref.ts</title>
<path fill="none" stroke="#757575" d="M90.84,-94.97C134.32,-106.05 212.89,-126.08 258.83,-137.79"/>
<polygon fill="#757575" stroke="#757575" points="258.11,-141.22 268.66,-140.3 259.84,-134.43 258.11,-141.22"/>
</g>
<!-- index.ts&#45;&gt;computed.ts -->
<g id="edge12" class="edge">
<title>index.ts&#45;&gt;computed.ts</title>
<path fill="none" stroke="#757575" d="M90.89,-89.45C153.75,-94.36 296.03,-105.48 375.04,-111.66"/>
<polygon fill="#757575" stroke="#757575" points="375.05,-115.17 385.29,-112.46 375.59,-108.19 375.05,-115.17"/>
</g>
</g>
</svg>
